<svg width="21" height="21" viewBox="0 0 21 21" fill="none" xmlns="http://www.w3.org/2000/svg">
<path d="M20.8164 19.929L15.7131 14.8257C17.0821 13.2519 17.9109 11.1984 17.9109 8.9541C17.9109 4.01375 13.8925 0 8.95679 0C4.01643 0 0.00268555 4.0184 0.00268555 8.9541C0.00268555 13.8898 4.02109 17.9082 8.95679 17.9082C11.2011 17.9082 13.2546 17.0794 14.8284 15.7104L19.9317 20.8137C20.0528 20.9348 20.2158 21 20.3741 21C20.5324 21 20.6954 20.9395 20.8164 20.8137C21.0586 20.5716 21.0586 20.1712 20.8164 19.929ZM1.25524 8.9541C1.25524 4.70754 4.71022 1.25721 8.95213 1.25721C13.1987 1.25721 16.649 4.7122 16.649 8.9541C16.649 13.196 13.1987 16.6557 8.95213 16.6557C4.71022 16.6557 1.25524 13.2007 1.25524 8.9541Z" fill="#FFFFFF"/>
</svg>
